<svg width="48" height="48" viewBox="0 0 48 48" fill="none" xmlns="http://www.w3.org/2000/svg">
<rect width="48" height="48" fill="#323238"/>
<path d="M23.9983 10.2914C16.2685 10.2914 10 16.5844 10 24.3474C10 30.5564 14.011 35.8239 19.576 37.6842C20.276 37.8137 20.5315 37.3797 20.5315 37.0069C20.5315 36.6727 20.5192 35.7889 20.5122 34.6164C16.6185 35.4652 15.796 32.7317 15.796 32.7317C15.1608 31.1077 14.242 30.6754 14.242 30.6754C12.9698 29.8039 14.3365 29.8214 14.3365 29.8214C15.7417 29.9212 16.4803 31.2704 16.4803 31.2704C17.7298 33.4177 19.758 32.7982 20.556 32.4377C20.682 31.5294 21.0442 30.9099 21.445 30.5582C18.337 30.2029 15.068 28.9972 15.068 23.6124C15.068 22.0777 15.614 20.8229 16.51 19.8394C16.3648 19.4842 15.8853 18.0544 16.6465 16.1207C16.6465 16.1207 17.8225 15.7427 20.4965 17.5609C21.613 17.2494 22.81 17.0937 24.0018 17.0884C25.19 17.0954 26.3887 17.2494 27.507 17.5627C30.1792 15.7444 31.3535 16.1224 31.3535 16.1224C32.1165 18.0579 31.637 19.4859 31.4935 19.8412C32.3912 20.8247 32.932 22.0794 32.932 23.6142C32.932 29.0129 29.6595 30.2012 26.541 30.5494C27.0432 30.9834 27.4912 31.8409 27.4912 33.1517C27.4912 35.0312 27.4737 36.5467 27.4737 37.0069C27.4737 37.3832 27.7257 37.8207 28.4362 37.6824C33.9925 35.8204 38 30.5547 38 24.3474C38 16.5844 31.7315 10.2914 23.9983 10.2914Z" fill="white"/>
</svg>
