<svg width="48" height="48" viewBox="0 0 48 48" fill="none" xmlns="http://www.w3.org/2000/svg">
<rect width="48" height="48" fill="#323238"/>
<g clip-path="url(#clip0_61385_205)">
<path d="M36.6849 16.8449C35.7603 17.2354 34.7804 17.493 33.7769 17.6093C34.8352 17.0038 35.627 16.0512 36.0048 14.929C35.0115 15.496 33.9234 15.8951 32.7882 16.1087C32.0948 15.3972 31.1931 14.902 30.2007 14.6877C29.2084 14.4734 28.1715 14.5499 27.2254 14.9073C26.2792 15.2647 25.4677 15.8864 24.8968 16.6912C24.3259 17.496 24.022 18.4466 24.0248 19.419C24.0229 19.7911 24.0668 20.1621 24.1556 20.5244C22.1396 20.4289 20.1674 19.9281 18.3677 19.0546C16.5679 18.1811 14.9812 16.9546 13.7111 15.4551C13.0631 16.5226 12.8653 17.7861 13.1579 18.9881C13.4505 20.1901 14.2116 21.2403 15.2861 21.9248C14.4786 21.9057 13.6882 21.6979 12.9841 21.3196V21.3797C12.9836 22.499 13.3885 23.584 14.1302 24.4502C14.8718 25.3165 15.9043 25.9106 17.0523 26.1316C16.6174 26.2444 16.1687 26.3015 15.7181 26.3015C15.3985 26.3021 15.0797 26.2721 14.7664 26.2119C15.09 27.1745 15.7204 28.0164 16.5694 28.6197C17.4184 29.223 18.4434 29.5575 19.5012 29.5764C17.7065 30.9247 15.489 31.6558 13.2063 31.6516C12.8024 31.6511 12.3989 31.6279 11.9979 31.582C14.3045 33.0166 16.9986 33.7774 19.7505 33.7715C21.6488 33.7843 23.5308 33.4362 25.2871 32.7476C27.0434 32.059 28.639 31.0435 29.9811 29.7603C31.3232 28.4771 32.385 26.9517 33.1049 25.2728C33.8248 23.5939 34.1883 21.7949 34.1743 19.9806C34.1743 19.7706 34.1743 19.5606 34.1583 19.3553C35.1498 18.6685 36.0053 17.8184 36.6849 16.8449Z" fill="white"/>
</g>
<defs>
<clipPath id="clip0_61385_205">
<rect width="24.6857" height="19.2" fill="white" transform="translate(12 14.5706)"/>
</clipPath>
</defs>
</svg>
