<svg width="48" height="48" viewBox="0 0 48 48" fill="none" xmlns="http://www.w3.org/2000/svg">
<path d="M0 0H48V48H0V0Z" fill="#323238"/>
<g clip-path="url(#clip0_61494_8)">
<path d="M17.0522 20.0993H11.8327C11.601 20.0993 11.4133 20.2818 11.4133 20.5068V36.8002C11.4133 37.0253 11.601 37.2077 11.8327 37.2077H17.0522C17.2839 37.2077 17.4716 37.0253 17.4716 36.8002V20.5068C17.4716 20.2818 17.2839 20.0993 17.0522 20.0993Z" fill="white"/>
<path d="M14.4442 11.9995C12.5451 11.9995 11 13.4991 11 15.3425C11 17.1867 12.5451 18.687 14.4442 18.687C16.3419 18.687 17.8857 17.1866 17.8857 15.3425C17.8858 13.4991 16.3419 11.9995 14.4442 11.9995Z" fill="white"/>
<path d="M30.3284 19.6943C28.232 19.6943 26.6823 20.57 25.7424 21.565V20.5068C25.7424 20.2818 25.5547 20.0993 25.323 20.0993H20.3244C20.0927 20.0993 19.905 20.2818 19.905 20.5068V36.8002C19.905 37.0253 20.0927 37.2077 20.3244 37.2077H25.5325C25.7642 37.2077 25.9519 37.0253 25.9519 36.8002V28.7387C25.9519 26.0222 26.7112 24.9639 28.6601 24.9639C30.7825 24.9639 30.9512 26.6605 30.9512 28.8785V36.8003C30.9512 37.0254 31.1389 37.2078 31.3705 37.2078H36.5806C36.8123 37.2078 37 37.0254 37 36.8003V27.8631C37 23.8237 36.2073 19.6943 30.3284 19.6943Z" fill="white"/>
</g>
<defs>
<clipPath id="clip0_61494_8">
<rect width="26" height="22" fill="white" transform="translate(11 11.9995)"/>
</clipPath>
</defs>
</svg>
