<svg width="48" height="48" viewBox="0 0 48 48" fill="none" xmlns="http://www.w3.org/2000/svg">
<rect width="48" height="48" fill="#323238"/>
<g clip-path="url(#clip0_61385_216)">
<path d="M22.724 35.9991C21.617 35.9991 20.324 35.9931 19.048 35.9201C17.1811 35.9622 15.3729 35.2661 14.016 33.9831C12.7328 32.6268 12.0367 30.8188 12.079 28.9521C12 27.5091 12 26.0501 12 24.6391C12 24.4258 12 24.2125 12 23.9991C12 23.7858 12 23.5725 12 23.3591C12 21.9481 12 20.4891 12.079 19.0471C12.037 17.1802 12.733 15.372 14.016 14.0151C15.3729 12.7322 17.1811 12.0361 19.048 12.0781C20.328 12.0051 21.617 11.9991 22.724 11.9991H25.277C26.384 11.9991 27.677 12.0051 28.954 12.0781C30.8207 12.0359 32.6286 12.7319 33.985 14.0151C35.268 15.372 35.964 17.1802 35.922 19.0471C36 20.4891 36 21.9481 36 23.3601C36 23.5735 36 23.7868 36 24.0001C36 24.2135 36 24.4265 36 24.6391C36 26.0501 36 27.5091 35.921 28.9531C35.9633 30.8198 35.2672 32.6278 33.984 33.9841C32.6276 35.2673 30.8197 35.9634 28.953 35.9211C27.672 35.9941 26.383 36.0001 25.276 36.0001L22.724 35.9991Z" fill="white"/>
<path d="M29.6061 18.7878C29.8426 18.9458 30.1206 19.0301 30.405 19.0301L30.406 19.0311C30.7873 19.0306 31.1528 18.8787 31.4223 18.6089C31.6917 18.3391 31.843 17.9734 31.843 17.5921C31.843 17.3077 31.7587 17.0297 31.6007 16.7932C31.4427 16.5567 31.2181 16.3724 30.9553 16.2636C30.6926 16.1547 30.4034 16.1263 30.1245 16.1817C29.8456 16.2372 29.5893 16.3742 29.3882 16.5753C29.1871 16.7764 29.0502 17.0326 28.9947 17.3116C28.9392 17.5905 28.9677 17.8797 29.0765 18.1424C29.1853 18.4052 29.3697 18.6298 29.6061 18.7878Z" fill="#323238"/>
<path fill-rule="evenodd" clip-rule="evenodd" d="M24.0003 30.1548C22.7828 30.1546 21.5927 29.7934 20.5805 29.1169C19.5683 28.4403 18.7794 27.4788 18.3137 26.3539C17.8479 25.2291 17.7261 23.9913 17.9637 22.7972C18.2014 21.6032 18.7878 20.5064 19.6487 19.6455C20.5097 18.7847 21.6066 18.1985 22.8007 17.961C23.9949 17.7236 25.2326 17.8456 26.3574 18.3115C27.4822 18.7775 28.4436 19.5665 29.1199 20.5789C29.7963 21.5912 30.1573 22.7813 30.1573 23.9988C30.1558 25.6313 29.5066 27.1964 28.3522 28.3507C27.1979 29.5051 25.6328 30.1533 24.0003 30.1548ZM24.0003 19.9994C23.2092 19.9994 22.4358 20.234 21.778 20.6735C21.1202 21.113 20.6075 21.7377 20.3048 22.4686C20.002 23.1995 19.9228 24.0038 20.0771 24.7797C20.2315 25.5556 20.6124 26.2684 21.1719 26.8278C21.7313 27.3872 22.444 27.7682 23.2199 27.9225C23.9958 28.0768 24.8001 27.9976 25.531 27.6949C26.2619 27.3921 26.8866 26.8794 27.3262 26.2216C27.7657 25.5638 28.0003 24.7905 28.0003 23.9994C28.0003 22.9385 27.5789 21.9211 26.8287 21.1709C26.0786 20.4208 25.0612 19.9994 24.0003 19.9994Z" fill="#323238"/>
</g>
<defs>
<clipPath id="clip0_61385_216">
<rect width="24" height="24" fill="white" transform="translate(12 11.9991)"/>
</clipPath>
</defs>
</svg>
