<svg width="48" height="48" viewBox="0 0 48 48" fill="none" xmlns="http://www.w3.org/2000/svg">
<rect width="48" height="48" fill="#323238"/>
<g clip-path="url(#clip0_61385_212)">
<path d="M36.5252 19.8103C36.5698 18.7819 36.219 17.7772 35.5499 17.0166C34.8809 16.2561 33.9481 15.8018 32.9564 15.7534C30.2851 15.6236 27.5608 15.5706 24.7784 15.5706H23.9108C21.1337 15.5706 18.4042 15.6209 15.7328 15.7534C14.7408 15.8051 13.809 16.2619 13.141 17.024C12.473 17.7862 12.1233 18.7916 12.1684 19.8203C12.0485 21.6038 11.9947 23.3799 12 25.1606C12.0053 26.9413 12.0485 28.7201 12.164 30.5054C12.117 31.5357 12.4655 32.5433 13.1334 33.3078C13.8013 34.0722 14.734 34.5311 15.7275 34.5841C18.5338 34.7194 21.4132 34.7788 24.3402 34.7743C27.2719 34.784 30.1428 34.7206 32.9529 34.5841C33.9464 34.5321 34.8796 34.074 35.5483 33.3103C36.2169 32.5466 36.5666 31.5394 36.5208 30.509C36.6363 28.7238 36.6892 26.944 36.6848 25.1596C36.6942 23.3765 36.641 21.5934 36.5252 19.8103ZM21.9783 30.0648V20.2408L28.9705 25.1505L21.9783 30.0648Z" fill="white"/>
</g>
<defs>
<clipPath id="clip0_61385_212">
<rect width="24.6857" height="19.2" fill="white" transform="translate(12 15.5706)"/>
</clipPath>
</defs>
</svg>
